<svg xmlns="http://www.w3.org/2000/svg" width="130" height="32" viewBox="0 0 130 32"><path d="M14.547.67a1.79 1.79 0 011.986 0 43.067 43.067 0 014.4 3.17s.38.264.39-.183a6.99 6.99 0 01.102-1.727.787.787 0 01.731-.508s1.727.087 2.824.234c.49.065.873.458.925.95 0 0 .706 4.703.863 6.4 0 0 .137.863 1.387 2.326 0 0 2.54 3.556 2.834 4.236 0 0 .59 1.23-.68 1.397 0 0-2.317.234-2.54.285a.579.579 0 00-.508.63s-.122 8.182-.721 12.114c0 0-.158 1.559-1.016 1.523 0 0-2.382-.076-2.936-.06 0 0-.239 0-.203-.32 0 0 1.214-12.76.39-19.21 0 0-.035-.834-.67-1.017 0 0-.579-.233-1.132.508a20.247 20.247 0 00-3.77 11.515s-.065 2.032.245 2.54c0 0 .193.356 1.178.437l1.25.167s.228 0 .208.305c0 0-.285 3.744-.366 4.41-.005.15-.036.3-.091.441 0 0-.046.127-.437.112 0 0-5.506-.04-6.126 0 0 0-.259 0-.315-.137-.056-.138-.38-4.83-.37-5.496a.33.33 0 01.192-.325 3.313 3.313 0 001.524-2.433 13.4 13.4 0 00.03-2.139s.204-7.177.255-8.33c0 0 .04-.391-.468-.462a.471.471 0 00-.569.35v.041c0 .04-.355 4.734-.289 6.603 0 0 .122 1.224-.726 1.25 0 0-.823.122-.864-.9 0 0 .061-4.601.264-6.877a.507.507 0 00-.452-.508.508.508 0 00-.569.412.134.134 0 000 .04s-.355 4.404-.29 6.73c0 0 .102 1.128-.797 1.087 0 0-.751.087-.792-.914 0 0 .203-6.303.259-6.791a.508.508 0 00-.452-.477h-.05a.506.506 0 00-.544.421.119.119 0 000 .046s-.336 7.538-.29 9.752c0 0-.03 2.276 1.65 3.2 0 0 .25.142.255.36 0 0 .188 3.998.36 5.289 0 0 .061.31-.213.31l-4.23.116a.868.868 0 01-.864-.823 94.709 94.709 0 01-.783-12.774.65.65 0 00-.508-.696s-2.163-.198-2.687-.33a.9.9 0 01-.548-1.326A43.51 43.51 0 0114.547.67zm29.796 11.84h-4.175c-1.351 0-1.351 0-1.636 1.58-.284 1.58-.28 1.636.96 1.636h2.484l-1.412 8.07c-.34 1.804-1.128 3.048-3.556 3.78-.62.167-.787.391-.787.675.043.454.178.895.396 1.296.391.96.62 1.132.955 1.132.403-.038.8-.115 1.189-.228 3.438-1.128 4.85-3.78 5.414-6.939l1.58-9.082c.28-1.92.28-1.92-1.412-1.92m14.161 0c-1.691 0-1.691 0-1.92 1.413l-1.219 7.334c-.34 2.144-.904 3.383-2.992 3.383-2.087 0-2.763-1.24-2.423-3.16l1.184-6.994c.34-1.976.28-1.976-1.468-1.976-1.747 0-1.747 0-1.976 1.357L46.45 21.2c-.73 4.176 1.865 6.766 5.532 6.766 4.115 0 6.202-1.86 6.878-6.258l1.244-7.279c.28-1.92.168-1.92-1.58-1.92m7.706 12.019c1.356-.056 2.087-.675 2.087-1.295 0-.792-.96-1.072-2.255-1.468-2.54-.792-4.85-1.691-4.85-4.399 0-3.215 2.65-4.967 5.978-4.967a40 40 0 014.007.172c.9.112 1.128.392.844 1.804-.285 1.412-.62 1.523-1.407 1.468-.96-.056-2.205-.173-3.668-.173-1.691 0-2.199.625-2.199 1.188 0 .732.676 1.128 2.255 1.58 2.931.843 4.851 2.032 4.851 4.572 0 2.991-2.2 4.739-5.755 4.85a28.307 28.307 0 01-5.08-.279c-1.132-.173-1.188-.173-.903-1.808.279-1.463.279-1.58 1.35-1.463 1.572.198 3.157.273 4.74.223M84.678 12.51h-9.534c-1.351 0-1.351 0-1.635 1.641-.285 1.64-.224 1.636.96 1.636h3.103L75.82 25.905c-.336 1.97-.28 1.97 1.468 1.97 1.635 0 1.691 0 1.92-1.406l1.803-10.667h2.992c1.35 0 1.35 0 1.635-1.636.285-1.635.28-1.64-.96-1.64m16.812 3.22c1.352 0 1.352 0 1.636-1.636.285-1.635.28-1.635-.96-1.635H95.34c-2.428 0-2.367 0-2.763 2.428l-1.748 10.21c-.452 2.65-.396 2.65 2.032 2.65h6.659c1.412 0 1.351 0 1.636-1.579.284-1.58.279-1.635-.96-1.635h-5.76l.452-2.936h4.795c1.3 0 1.3 0 1.523-1.524.224-1.524.224-1.58-1.523-1.58H95.45l.452-2.768 5.588.005zm7.208 5.399l2.2-4.85c.172-.397.172-.397.452-.397s.284 0 .34.452l.676 4.795h-3.668zm5.979-6.77c-.335-1.92-.335-1.92-3.048-1.92-2.54 0-2.484 0-3.27 1.58l-5.7 11.905c-.848 1.692-.676 1.86 1.407 1.86 1.64 0 1.64 0 2.316-1.524l.9-2.032h5.53l.28 2.032c.229 1.523.285 1.523 1.92 1.523 1.864 0 2.032-.111 1.691-1.976l-2.026-11.448zm13.496-1.865h-9.59c-1.356 0-1.356 0-1.636 1.641-.28 1.64-.228 1.636.955 1.636h3.104l-1.748 10.118c-.34 1.97-.284 1.97 1.468 1.97 1.636 0 1.692 0 1.915-1.406l1.809-10.667h2.986c1.356 0 1.356 0 1.636-1.636.28-1.635.34-1.64-.9-1.64" fill="#FF8000" fill-rule="evenodd"/></svg>